# xmcd
#
# Track frame offsets: 
#        150
#        15616
#        25611
#        46975
#        60153
#        74313
#        89744
#        103688
#        116194
#        129683
#        142949
#        156439
#        173220
#        187688
#        207341
#        219732
#        235974
#        252437
#        267528
#        282036
#
# Disc length: 3985 seconds
#
# Revision: 0
# Processed by: cddbd v1.5.2PL0 Copyright (c) Steve Scherf et al.
# Submitted via: ExactAudioCopy v0.95b4
#
DISCID=260f8f14
DTITLE=Joe Tex - This is gold [CD 2)
DYEAR=1900
DGENRE=Soul
TTITLE0=Buying a book
TTITLE1=You got what it takes
TTITLE2=Time brings about a change
TTITLE3=Show me
TTITLE4=Woman like that
TTITLE5=A woman's hands
TTITLE6=I'll never do you wrong
TTITLE7=When Johnny comes marching home
TTITLE8=We can't sit down
TTITLE9=The love you save (may be your own)
TTITLE10=Don't make your children pay (for your mistakes)
TTITLE11=This time we'll make it all the way
TTITLE12=Funny how time slips away
TTITLE13=Let's go somewhere and talk
TTITLE14=Make the world go away
TTITLE15=For my woman
TTITLE16=Grandma Mary
TTITLE17=You need my baby
TTITLE18=Men are getting scarce
TTITLE19=Anything you wanna know
EXTD=
EXTT0=
EXTT1=
EXTT2=
EXTT3=
EXTT4=
EXTT5=
EXTT6=
EXTT7=
EXTT8=
EXTT9=
EXTT10=
EXTT11=
EXTT12=
EXTT13=
EXTT14=
EXTT15=
EXTT16=
EXTT17=
EXTT18=
EXTT19=
PLAYORDER=
